<?xml version="1.0" encoding="UTF-8" standalone="no"?>
<!-- Created with Inkscape (http://www.inkscape.org/) -->

<svg
   width="48"
   height="48"
   viewBox="0 0 12.7 12.7"
   version="1.1"
   id="svg5"
   xmlns="http://www.w3.org/2000/svg"
   xmlns:svg="http://www.w3.org/2000/svg">
  <defs
     id="defs2" />
  <g
     id="layer1">
    <circle
       style="fill:#ffffff;stroke:none;stroke-width:0.600001;stroke-linecap:round;stroke-linejoin:round;fill-opacity:1"
       id="path850"
       cx="6.3499999"
       cy="6.3499999"
       r="6.3499999" />
    <circle
       style="fill:#000000;fill-opacity:1;stroke:none;stroke-width:0.600001;stroke-linecap:round;stroke-linejoin:round"
       id="path918"
       cx="6.3499999"
       cy="6.3499999"
       r="5.2916665" />
    <path
       id="path964"
       style="fill:#f40040;fill-opacity:1;stroke:none;stroke-width:2.26772;stroke-linecap:round;stroke-linejoin:round"
       d="M 33.90625 11.435547 C 33.669065 11.583867 33.432901 11.731493 33.195312 11.884766 C 33.027299 11.993154 32.858557 12.102407 32.691406 12.212891 C 32.524256 12.323374 32.358764 12.434614 32.193359 12.546875 C 32.027954 12.659136 31.863949 12.772996 31.701172 12.886719 C 31.538395 13.000441 31.376064 13.115602 31.216797 13.230469 C 31.05753 13.345336 30.900968 13.460477 30.746094 13.576172 C 30.591219 13.691867 30.438662 13.807622 30.289062 13.923828 C 30.139463 14.040035 29.993052 14.155083 29.849609 14.271484 C 29.706167 14.387886 29.566091 14.504814 29.429688 14.621094 C 29.293284 14.737373 29.159732 14.854862 29.03125 14.970703 C 28.902768 15.086544 28.777881 15.201321 28.658203 15.316406 C 28.538525 15.431492 28.424445 15.546143 28.314453 15.660156 C 28.204461 15.77417 28.099423 15.887375 28 16 C 27.93834 16.069847 27.877579 16.141397 27.818359 16.212891 C 27.75914 16.284384 27.701427 16.356627 27.644531 16.429688 C 27.587635 16.502748 27.531252 16.575842 27.476562 16.650391 C 27.421873 16.724939 27.369007 16.800995 27.316406 16.876953 C 27.263806 16.952911 27.212738 17.028181 27.162109 17.105469 C 27.111481 17.182757 27.060492 17.261304 27.011719 17.339844 C 26.962945 17.418383 26.916177 17.49646 26.869141 17.576172 C 26.822105 17.655883 26.775884 17.737555 26.730469 17.818359 C 26.639638 17.979969 26.551848 18.143086 26.466797 18.308594 C 26.381745 18.474101 26.298959 18.641773 26.21875 18.810547 C 26.138541 18.979321 26.060679 19.148905 25.984375 19.320312 C 25.908071 19.49172 25.833102 19.664481 25.759766 19.837891 C 25.686429 20.0113 25.614275 20.186549 25.542969 20.361328 C 25.471663 20.536108 25.402244 20.711202 25.332031 20.886719 C 25.191606 21.237753 25.051831 21.589262 24.910156 21.939453 C 24.839319 22.114549 24.767868 22.288954 24.695312 22.462891 C 24.622757 22.636827 24.54982 22.810276 24.474609 22.982422 C 24.399398 23.154567 24.320991 23.326372 24.242188 23.496094 C 24.163384 23.665816 24.083333 23.833333 24 24 C 23.916667 24.166667 23.836616 24.334184 23.757812 24.503906 C 23.679009 24.673628 23.600602 24.845433 23.525391 25.017578 C 23.45018 25.189724 23.377243 25.363173 23.304688 25.537109 C 23.232132 25.711046 23.160681 25.885451 23.089844 26.060547 C 22.948169 26.410738 22.808394 26.762247 22.667969 27.113281 C 22.597756 27.288798 22.528337 27.463892 22.457031 27.638672 C 22.385725 27.813451 22.313571 27.9887 22.240234 28.162109 C 22.166898 28.335519 22.091929 28.50828 22.015625 28.679688 C 21.939321 28.851095 21.861459 29.020679 21.78125 29.189453 C 21.701041 29.358227 21.618255 29.525899 21.533203 29.691406 C 21.448152 29.856914 21.360362 30.020031 21.269531 30.181641 C 21.224116 30.262445 21.177895 30.344117 21.130859 30.423828 C 21.083823 30.50354 21.037055 30.581617 20.988281 30.660156 C 20.939508 30.738696 20.888519 30.817243 20.837891 30.894531 C 20.787262 30.971819 20.736194 31.047089 20.683594 31.123047 C 20.630993 31.199005 20.578127 31.275061 20.523438 31.349609 C 20.468748 31.424158 20.412365 31.497252 20.355469 31.570312 C 20.298573 31.643373 20.24086 31.715616 20.181641 31.787109 C 20.122421 31.858603 20.06166 31.930153 20 32 C 19.900577 32.112625 19.795539 32.22583 19.685547 32.339844 C 19.575555 32.453857 19.461475 32.568508 19.341797 32.683594 C 19.222119 32.798679 19.097232 32.913456 18.96875 33.029297 C 18.840268 33.145138 18.706716 33.262627 18.570312 33.378906 C 18.433909 33.495186 18.293833 33.612114 18.150391 33.728516 C 18.006948 33.844917 17.860537 33.959965 17.710938 34.076172 C 17.561338 34.192378 17.408781 34.308133 17.253906 34.423828 C 17.099032 34.539523 16.94247 34.654664 16.783203 34.769531 C 16.623936 34.884398 16.461605 34.999559 16.298828 35.113281 C 16.136051 35.227004 15.972046 35.340864 15.806641 35.453125 C 15.641236 35.565386 15.475744 35.676626 15.308594 35.787109 C 15.141443 35.897593 14.972701 36.006846 14.804688 36.115234 C 14.56786 36.268016 14.332134 36.414638 14.095703 36.5625 A 15.999999 15.999999 0 0 0 24 40 A 15.999999 15.999999 0 0 0 40 24 A 15.999999 15.999999 0 0 0 33.90625 11.435547 z "
       transform="scale(0.26458333)" />
    <path
       id="path7799"
       style="fill:#ffc815;fill-opacity:1;stroke:none;stroke-width:2.26772;stroke-linecap:round;stroke-linejoin:round"
       d="M 24 8 A 15.999999 15.999999 0 0 0 8 24 A 15.999999 15.999999 0 0 0 14.095703 36.5625 C 14.332134 36.414638 14.56786 36.268016 14.804688 36.115234 C 14.972701 36.006846 15.141443 35.897593 15.308594 35.787109 C 15.475744 35.676626 15.641236 35.565386 15.806641 35.453125 C 15.972046 35.340864 16.136051 35.227004 16.298828 35.113281 C 16.461605 34.999559 16.623936 34.884398 16.783203 34.769531 C 16.94247 34.654664 17.099032 34.539523 17.253906 34.423828 C 17.408781 34.308133 17.561338 34.192378 17.710938 34.076172 C 17.860537 33.959965 18.006948 33.844917 18.150391 33.728516 C 18.293833 33.612114 18.433909 33.495186 18.570312 33.378906 C 18.706716 33.262627 18.840268 33.145138 18.96875 33.029297 C 19.097232 32.913456 19.222119 32.798679 19.341797 32.683594 C 19.461475 32.568508 19.575555 32.453857 19.685547 32.339844 C 19.795539 32.22583 19.900577 32.112625 20 32 C 20.06166 31.930153 20.122421 31.858603 20.181641 31.787109 C 20.24086 31.715616 20.298573 31.643373 20.355469 31.570312 C 20.412365 31.497252 20.468748 31.424158 20.523438 31.349609 C 20.578127 31.275061 20.630993 31.199005 20.683594 31.123047 C 20.736194 31.047089 20.787262 30.971819 20.837891 30.894531 C 20.888519 30.817243 20.939508 30.738696 20.988281 30.660156 C 21.037055 30.581617 21.083823 30.50354 21.130859 30.423828 C 21.177895 30.344117 21.224116 30.262445 21.269531 30.181641 C 21.360362 30.020031 21.448152 29.856914 21.533203 29.691406 C 21.618255 29.525899 21.701041 29.358227 21.78125 29.189453 C 21.861459 29.020679 21.939321 28.851095 22.015625 28.679688 C 22.091929 28.50828 22.166898 28.335519 22.240234 28.162109 C 22.313571 27.9887 22.385725 27.813451 22.457031 27.638672 C 22.528337 27.463892 22.597756 27.288798 22.667969 27.113281 C 22.808394 26.762247 22.948169 26.410738 23.089844 26.060547 C 23.160681 25.885451 23.232132 25.711046 23.304688 25.537109 C 23.377243 25.363173 23.45018 25.189724 23.525391 25.017578 C 23.600602 24.845433 23.679009 24.673628 23.757812 24.503906 C 23.836616 24.334184 23.916667 24.166667 24 24 C 24.083333 23.833333 24.163384 23.665816 24.242188 23.496094 C 24.320991 23.326372 24.399398 23.154567 24.474609 22.982422 C 24.54982 22.810276 24.622757 22.636827 24.695312 22.462891 C 24.767868 22.288954 24.839319 22.114549 24.910156 21.939453 C 25.051831 21.589262 25.191606 21.237753 25.332031 20.886719 C 25.402244 20.711202 25.471663 20.536108 25.542969 20.361328 C 25.614275 20.186549 25.686429 20.0113 25.759766 19.837891 C 25.833102 19.664481 25.908071 19.49172 25.984375 19.320312 C 26.060679 19.148905 26.138541 18.979321 26.21875 18.810547 C 26.298959 18.641773 26.381745 18.474101 26.466797 18.308594 C 26.551848 18.143086 26.639638 17.979969 26.730469 17.818359 C 26.775884 17.737555 26.822105 17.655883 26.869141 17.576172 C 26.916177 17.49646 26.962945 17.418383 27.011719 17.339844 C 27.060492 17.261304 27.111481 17.182757 27.162109 17.105469 C 27.212738 17.028181 27.263806 16.952911 27.316406 16.876953 C 27.369007 16.800995 27.421873 16.724939 27.476562 16.650391 C 27.531252 16.575842 27.587635 16.502748 27.644531 16.429688 C 27.701427 16.356627 27.75914 16.284384 27.818359 16.212891 C 27.877579 16.141397 27.93834 16.069847 28 16 C 28.099423 15.887375 28.204461 15.77417 28.314453 15.660156 C 28.424445 15.546143 28.538525 15.431492 28.658203 15.316406 C 28.777881 15.201321 28.902768 15.086544 29.03125 14.970703 C 29.159732 14.854862 29.293284 14.737373 29.429688 14.621094 C 29.566091 14.504814 29.706167 14.387886 29.849609 14.271484 C 29.993052 14.155083 30.139463 14.040035 30.289062 13.923828 C 30.438662 13.807622 30.591219 13.691867 30.746094 13.576172 C 30.900968 13.460477 31.05753 13.345336 31.216797 13.230469 C 31.376064 13.115602 31.538395 13.000441 31.701172 12.886719 C 31.863949 12.772996 32.027954 12.659136 32.193359 12.546875 C 32.358764 12.434614 32.524256 12.323374 32.691406 12.212891 C 32.858557 12.102407 33.027299 11.993154 33.195312 11.884766 C 33.432901 11.731493 33.669065 11.583867 33.90625 11.435547 A 15.999999 15.999999 0 0 0 24 8 z "
       transform="scale(0.26458333)" />
  </g>
</svg>
